<?xml version="1.0" standalone="no"?>
<!DOCTYPE svg PUBLIC "-//W3C//DTD SVG 20010904//EN"
 "http://www.w3.org/TR/2001/REC-SVG-20010904/DTD/svg10.dtd">
<svg version="1.0" xmlns="http://www.w3.org/2000/svg"
 width="241.000000pt" height="341.000000pt" viewBox="0 0 241.000000 341.000000"
 preserveAspectRatio="xMidYMid meet">

<g transform="translate(0.000000,341.000000) scale(0.100000,-0.100000)"
fill="#000000" stroke="none">
<path d="M485 3136 c-63 -29 -99 -70 -141 -161 -57 -124 -68 -194 -68 -431
l-1 -211 -66 -76 c-84 -96 -130 -172 -165 -272 -24 -70 -28 -95 -28 -200 0
-133 12 -186 71 -314 19 -40 32 -81 30 -90 -3 -9 -17 -43 -31 -77 -39 -93 -59
-229 -53 -359 6 -128 24 -202 73 -301 l35 -71 -30 -74 c-16 -41 -35 -101 -41
-134 -15 -75 -10 -329 7 -346 6 -6 40 -13 75 -16 84 -6 100 5 88 67 -14 70
-11 220 5 283 8 32 29 88 46 125 43 91 42 123 -4 198 -101 163 -113 394 -31
579 62 140 67 153 60 179 -3 14 -20 41 -36 60 -17 18 -42 60 -58 92 -25 55
-27 67 -27 194 1 158 16 210 92 311 95 125 198 179 361 187 l103 5 26 51 c37
72 137 167 220 208 67 33 70 33 208 33 139 0 140 0 204 -33 73 -39 182 -143
222 -213 l27 -46 106 -8 c91 -6 115 -12 177 -41 183 -88 289 -280 276 -499 -5
-90 -44 -191 -97 -251 -16 -19 -30 -46 -30 -59 0 -14 20 -70 45 -125 60 -133
68 -173 68 -315 -1 -140 -19 -211 -80 -309 -46 -75 -47 -107 -5 -196 17 -36
37 -93 46 -127 17 -66 21 -211 6 -283 -12 -62 4 -73 88 -67 35 3 69 10 75 16
17 17 22 269 7 345 -6 34 -25 95 -42 137 l-29 75 34 70 c48 95 67 171 74 294
7 132 -7 225 -53 360 l-37 106 35 74 c53 114 63 161 63 300 0 111 -3 135 -29
213 -35 107 -75 175 -158 268 l-63 71 -1 207 c-1 241 -14 322 -75 448 -54 113
-128 173 -215 173 -36 0 -123 -50 -154 -90 -44 -56 -84 -150 -114 -270 -15
-57 -30 -108 -36 -114 -5 -5 -35 2 -75 18 -196 78 -364 76 -546 -7 l-56 -26
-18 82 c-50 233 -127 364 -234 395 -54 17 -69 15 -126 -12z m108 -183 c34 -49
53 -104 77 -224 23 -111 27 -241 8 -257 -7 -6 -58 -18 -113 -27 -55 -10 -103
-19 -106 -21 -22 -13 -25 201 -4 320 21 122 75 246 105 246 4 0 19 -17 33 -37z
m1287 8 c11 -17 28 -47 36 -67 26 -61 54 -229 54 -317 0 -89 -9 -159 -19 -153
-3 2 -51 11 -106 21 -55 9 -106 21 -112 27 -30 25 -6 267 39 385 24 65 64 133
77 133 6 0 19 -13 31 -29z"/>
<path d="M1061 1814 c-126 -34 -253 -131 -302 -230 -29 -59 -38 -182 -19 -250
26 -93 130 -190 237 -224 80 -25 248 -34 353 -21 150 20 273 98 324 206 42 87
40 199 -5 291 -25 53 -141 163 -201 193 -100 48 -278 64 -387 35z m306 -126
c74 -27 143 -85 177 -147 24 -46 28 -61 24 -116 -5 -77 -38 -133 -106 -176
-70 -45 -109 -51 -281 -47 -146 3 -159 5 -207 30 -27 14 -67 45 -87 67 -129
143 -10 362 226 411 60 13 192 2 254 -22z"/>
<path d="M1118 1539 c-26 -15 -22 -41 13 -85 21 -27 28 -45 24 -61 -9 -36 11
-63 45 -63 34 0 50 23 50 73 0 23 8 41 25 57 28 27 32 61 10 80 -12 10 -24 11
-51 2 -24 -7 -45 -7 -61 -1 -30 11 -34 11 -55 -2z"/>
<path d="M562 1803 c-32 -6 -74 -66 -79 -116 -6 -52 20 -90 73 -107 47 -16 87
1 125 53 41 56 38 90 -10 138 -38 38 -53 43 -109 32z"/>
<path d="M1759 1793 c-33 -20 -59 -63 -59 -96 0 -33 51 -101 88 -116 61 -25
142 26 142 91 0 101 -95 169 -171 121z"/>
</g>
</svg>
