<?xml version="1.0" standalone="no"?>
<!DOCTYPE svg PUBLIC "-//W3C//DTD SVG 20010904//EN"
 "http://www.w3.org/TR/2001/REC-SVG-20010904/DTD/svg10.dtd">
<svg version="1.0" xmlns="http://www.w3.org/2000/svg"
 width="1024.000000pt" height="1024.000000pt" viewBox="0 0 1024.000000 1024.000000"
 preserveAspectRatio="xMidYMid meet">

<g transform="translate(0.000000,1024.000000) scale(0.100000,-0.100000)"
fill="#000000" stroke="none">
<path d="M2544 6626 c-3 -8 -4 -351 -1 -763 3 -648 6 -761 21 -843 26 -148 64
-276 115 -391 162 -363 406 -630 743 -812 472 -256 1038 -307 1548 -141 204
67 438 199 605 342 71 61 211 215 256 283 99 148 127 194 170 287 64 136 113
293 135 429 16 96 18 195 18 863 l1 755 -537 3 -537 2 -3 -672 c-4 -653 -5
-675 -26 -750 -76 -275 -278 -477 -527 -528 -88 -18 -277 -16 -354 4 -224 58
-420 255 -490 491 -36 123 -41 220 -41 847 l0 608 -545 0 c-461 0 -546 -2
-551 -14z"/>
<path d="M6650 5158 c0 -816 3 -1500 6 -1520 l7 -38 518 0 519 0 0 1520 0
1520 -525 0 -525 0 0 -1482z"/>
<path d="M4218 6441 c-81 -27 -136 -61 -195 -123 -94 -100 -127 -196 -121
-345 3 -84 8 -107 35 -166 40 -84 124 -174 201 -215 31 -17 95 -38 142 -48 71
-14 94 -15 148 -5 142 26 229 79 312 187 178 236 83 589 -187 699 -92 37 -248
45 -335 16z"/>
<path d="M6028 4140 c-60 -10 -106 -39 -157 -96 -94 -107 -94 -273 0 -387 63
-76 177 -118 270 -98 150 32 249 150 249 296 0 135 -85 246 -215 280 -64 16
-76 17 -147 5z"/>
</g>
</svg>
